<mxfile host="app.diagrams.net" modified="2020-10-20T11:10:18.908Z" agent="5.0 (X11; Linux x86_64) AppleWebKit/537.36 (KHTML, like Gecko) Chrome/86.0.4240.75 Safari/537.36" etag="Q3zQ0_LWSHm3IDpEHFA0" version="13.8.0" type="github">
  <diagram id="FFwEO2p_gcXmrBvd7Jtg" name="Page-1">
    <mxGraphModel dx="2014" dy="1190" grid="1" gridSize="10" guides="1" tooltips="1" connect="1" arrows="1" fold="1" page="1" pageScale="1" pageWidth="2000" pageHeight="2000" math="0" shadow="0">
      <root>
        <mxCell id="0" />
        <mxCell id="1" parent="0" />
        <mxCell id="sK4rs6RbN3mdAD_nlhEC-1" value="" style="edgeStyle=orthogonalEdgeStyle;rounded=0;orthogonalLoop=1;jettySize=auto;html=1;" parent="1" source="sK4rs6RbN3mdAD_nlhEC-2" target="sK4rs6RbN3mdAD_nlhEC-5" edge="1">
          <mxGeometry relative="1" as="geometry" />
        </mxCell>
        <mxCell id="sK4rs6RbN3mdAD_nlhEC-2" value="request channels" style="whiteSpace=wrap;html=1;aspect=fixed;" parent="1" vertex="1">
          <mxGeometry x="204" y="230" width="80" height="80" as="geometry" />
        </mxCell>
        <mxCell id="sK4rs6RbN3mdAD_nlhEC-3" value="" style="edgeStyle=orthogonalEdgeStyle;rounded=0;orthogonalLoop=1;jettySize=auto;html=1;" parent="1" source="sK4rs6RbN3mdAD_nlhEC-5" target="sK4rs6RbN3mdAD_nlhEC-6" edge="1">
          <mxGeometry relative="1" as="geometry" />
        </mxCell>
        <mxCell id="sK4rs6RbN3mdAD_nlhEC-4" value="" style="edgeStyle=orthogonalEdgeStyle;rounded=0;orthogonalLoop=1;jettySize=auto;html=1;" parent="1" source="sK4rs6RbN3mdAD_nlhEC-5" target="sK4rs6RbN3mdAD_nlhEC-8" edge="1">
          <mxGeometry relative="1" as="geometry">
            <Array as="points">
              <mxPoint x="440" y="370" />
              <mxPoint x="440" y="40" />
            </Array>
          </mxGeometry>
        </mxCell>
        <mxCell id="sK4rs6RbN3mdAD_nlhEC-5" value="status 200?" style="rhombus;whiteSpace=wrap;html=1;" parent="1" vertex="1">
          <mxGeometry x="204" y="330" width="80" height="80" as="geometry" />
        </mxCell>
        <mxCell id="sK4rs6RbN3mdAD_nlhEC-6" value="exit" style="whiteSpace=wrap;html=1;" parent="1" vertex="1">
          <mxGeometry x="10" y="340" width="120" height="60" as="geometry" />
        </mxCell>
        <mxCell id="sK4rs6RbN3mdAD_nlhEC-7" value="" style="edgeStyle=orthogonalEdgeStyle;rounded=0;orthogonalLoop=1;jettySize=auto;html=1;" parent="1" source="sK4rs6RbN3mdAD_nlhEC-8" target="sK4rs6RbN3mdAD_nlhEC-10" edge="1">
          <mxGeometry relative="1" as="geometry" />
        </mxCell>
        <mxCell id="sK4rs6RbN3mdAD_nlhEC-8" value="parse response data as JSON" style="whiteSpace=wrap;html=1;" parent="1" vertex="1">
          <mxGeometry x="524" y="10" width="120" height="60" as="geometry" />
        </mxCell>
        <mxCell id="sK4rs6RbN3mdAD_nlhEC-9" value="" style="edgeStyle=orthogonalEdgeStyle;rounded=0;orthogonalLoop=1;jettySize=auto;html=1;" parent="1" source="sK4rs6RbN3mdAD_nlhEC-10" target="sK4rs6RbN3mdAD_nlhEC-12" edge="1">
          <mxGeometry relative="1" as="geometry" />
        </mxCell>
        <mxCell id="sK4rs6RbN3mdAD_nlhEC-10" value="for every channel in response data" style="whiteSpace=wrap;html=1;" parent="1" vertex="1">
          <mxGeometry x="524" y="90" width="120" height="60" as="geometry" />
        </mxCell>
        <mxCell id="sK4rs6RbN3mdAD_nlhEC-11" value="" style="edgeStyle=orthogonalEdgeStyle;rounded=0;orthogonalLoop=1;jettySize=auto;html=1;" parent="1" source="sK4rs6RbN3mdAD_nlhEC-12" target="sK4rs6RbN3mdAD_nlhEC-14" edge="1">
          <mxGeometry relative="1" as="geometry" />
        </mxCell>
        <mxCell id="sK4rs6RbN3mdAD_nlhEC-12" value="create option element with the channels name as innerHTML and the channels API id as id" style="whiteSpace=wrap;html=1;" parent="1" vertex="1">
          <mxGeometry x="524" y="180" width="120" height="70" as="geometry" />
        </mxCell>
        <mxCell id="PefsJQPtOMHPx6LnxWSw-2" value="" style="edgeStyle=orthogonalEdgeStyle;rounded=0;orthogonalLoop=1;jettySize=auto;html=1;" edge="1" parent="1" source="sK4rs6RbN3mdAD_nlhEC-14" target="PefsJQPtOMHPx6LnxWSw-1">
          <mxGeometry relative="1" as="geometry" />
        </mxCell>
        <mxCell id="sK4rs6RbN3mdAD_nlhEC-14" value="append the option to select tag with id &quot;playchannel&quot;" style="whiteSpace=wrap;html=1;" parent="1" vertex="1">
          <mxGeometry x="525" y="260" width="120" height="60" as="geometry" />
        </mxCell>
        <mxCell id="sK4rs6RbN3mdAD_nlhEC-15" value="" style="edgeStyle=orthogonalEdgeStyle;rounded=0;orthogonalLoop=1;jettySize=auto;html=1;" parent="1" source="sK4rs6RbN3mdAD_nlhEC-16" target="sK4rs6RbN3mdAD_nlhEC-18" edge="1">
          <mxGeometry relative="1" as="geometry" />
        </mxCell>
        <mxCell id="sK4rs6RbN3mdAD_nlhEC-16" value="create an li tag and an a tag" style="whiteSpace=wrap;html=1;" parent="1" vertex="1">
          <mxGeometry x="525" y="490" width="120" height="60" as="geometry" />
        </mxCell>
        <mxCell id="sK4rs6RbN3mdAD_nlhEC-17" value="" style="edgeStyle=orthogonalEdgeStyle;rounded=0;orthogonalLoop=1;jettySize=auto;html=1;" parent="1" source="sK4rs6RbN3mdAD_nlhEC-18" target="sK4rs6RbN3mdAD_nlhEC-20" edge="1">
          <mxGeometry relative="1" as="geometry" />
        </mxCell>
        <mxCell id="sK4rs6RbN3mdAD_nlhEC-18" value="add channel name as innerHTML, title as taglien from channel to the a tag" style="whiteSpace=wrap;html=1;" parent="1" vertex="1">
          <mxGeometry x="525" y="570" width="120" height="60" as="geometry" />
        </mxCell>
        <mxCell id="sK4rs6RbN3mdAD_nlhEC-19" value="" style="edgeStyle=orthogonalEdgeStyle;rounded=0;orthogonalLoop=1;jettySize=auto;html=1;entryX=0.5;entryY=1;entryDx=0;entryDy=0;exitX=0;exitY=0.5;exitDx=0;exitDy=0;" parent="1" source="sK4rs6RbN3mdAD_nlhEC-20" target="sK4rs6RbN3mdAD_nlhEC-21" edge="1">
          <mxGeometry relative="1" as="geometry">
            <mxPoint x="400" y="690" as="targetPoint" />
            <Array as="points">
              <mxPoint x="375" y="680" />
            </Array>
          </mxGeometry>
        </mxCell>
        <mxCell id="sK4rs6RbN3mdAD_nlhEC-20" value="append the a tago to the li tag and the li tag to ul tag with id &quot;mainnavlist&quot;" style="whiteSpace=wrap;html=1;" parent="1" vertex="1">
          <mxGeometry x="525" y="650" width="120" height="60" as="geometry" />
        </mxCell>
        <mxCell id="PefsJQPtOMHPx6LnxWSw-11" value="" style="edgeStyle=orthogonalEdgeStyle;rounded=0;orthogonalLoop=1;jettySize=auto;html=1;" edge="1" parent="1" source="sK4rs6RbN3mdAD_nlhEC-21" target="PefsJQPtOMHPx6LnxWSw-10">
          <mxGeometry relative="1" as="geometry" />
        </mxCell>
        <mxCell id="sK4rs6RbN3mdAD_nlhEC-21" value="more channels?" style="rhombus;whiteSpace=wrap;html=1;" parent="1" vertex="1">
          <mxGeometry x="320" y="520" width="110" height="110" as="geometry" />
        </mxCell>
        <mxCell id="sK4rs6RbN3mdAD_nlhEC-22" value="no" style="text;html=1;strokeColor=none;fillColor=none;align=center;verticalAlign=middle;whiteSpace=wrap;rounded=0;" parent="1" vertex="1">
          <mxGeometry x="150" y="340" width="40" height="20" as="geometry" />
        </mxCell>
        <mxCell id="sK4rs6RbN3mdAD_nlhEC-23" value="yes" style="text;html=1;strokeColor=none;fillColor=none;align=center;verticalAlign=middle;whiteSpace=wrap;rounded=0;" parent="1" vertex="1">
          <mxGeometry x="284" y="340" width="40" height="20" as="geometry" />
        </mxCell>
        <mxCell id="sK4rs6RbN3mdAD_nlhEC-25" value="yes" style="text;html=1;strokeColor=none;fillColor=none;align=center;verticalAlign=middle;whiteSpace=wrap;rounded=0;" parent="1" vertex="1">
          <mxGeometry x="380" y="500" width="40" height="20" as="geometry" />
        </mxCell>
        <mxCell id="sK4rs6RbN3mdAD_nlhEC-26" value="" style="edgeStyle=orthogonalEdgeStyle;rounded=0;orthogonalLoop=1;jettySize=auto;html=1;" parent="1" source="sK4rs6RbN3mdAD_nlhEC-27" target="sK4rs6RbN3mdAD_nlhEC-31" edge="1">
          <mxGeometry relative="1" as="geometry" />
        </mxCell>
        <mxCell id="sK4rs6RbN3mdAD_nlhEC-27" value="on page load" style="rounded=0;whiteSpace=wrap;html=1;" parent="1" vertex="1">
          <mxGeometry x="60" y="10" width="120" height="60" as="geometry" />
        </mxCell>
        <mxCell id="sK4rs6RbN3mdAD_nlhEC-28" value="" style="edgeStyle=orthogonalEdgeStyle;rounded=0;orthogonalLoop=1;jettySize=auto;html=1;" parent="1" source="sK4rs6RbN3mdAD_nlhEC-29" target="sK4rs6RbN3mdAD_nlhEC-30" edge="1">
          <mxGeometry relative="1" as="geometry" />
        </mxCell>
        <mxCell id="sK4rs6RbN3mdAD_nlhEC-29" value="on numrows change" style="rounded=0;whiteSpace=wrap;html=1;" parent="1" vertex="1">
          <mxGeometry x="310" y="10" width="120" height="60" as="geometry" />
        </mxCell>
        <mxCell id="sK4rs6RbN3mdAD_nlhEC-30" value="save new numrow value to settings" style="whiteSpace=wrap;html=1;rounded=0;" parent="1" vertex="1">
          <mxGeometry x="310" y="130" width="120" height="60" as="geometry" />
        </mxCell>
        <mxCell id="sK4rs6RbN3mdAD_nlhEC-31" value="set saved value of numRows to html element with id numrows" style="whiteSpace=wrap;html=1;rounded=0;" parent="1" vertex="1">
          <mxGeometry x="60" y="130" width="120" height="60" as="geometry" />
        </mxCell>
        <mxCell id="sK4rs6RbN3mdAD_nlhEC-32" value="" style="edgeStyle=segmentEdgeStyle;endArrow=classic;html=1;exitX=0.5;exitY=1;exitDx=0;exitDy=0;entryX=0;entryY=0.5;entryDx=0;entryDy=0;" parent="1" source="sK4rs6RbN3mdAD_nlhEC-31" target="sK4rs6RbN3mdAD_nlhEC-2" edge="1">
          <mxGeometry width="50" height="50" relative="1" as="geometry">
            <mxPoint x="120" y="210" as="sourcePoint" />
            <mxPoint x="170" y="280" as="targetPoint" />
            <Array as="points">
              <mxPoint x="120" y="270" />
            </Array>
          </mxGeometry>
        </mxCell>
        <mxCell id="sK4rs6RbN3mdAD_nlhEC-33" value="" style="edgeStyle=segmentEdgeStyle;endArrow=classic;html=1;entryX=1;entryY=0.5;entryDx=0;entryDy=0;exitX=0.5;exitY=1;exitDx=0;exitDy=0;" parent="1" source="sK4rs6RbN3mdAD_nlhEC-30" target="sK4rs6RbN3mdAD_nlhEC-2" edge="1">
          <mxGeometry width="50" height="50" relative="1" as="geometry">
            <mxPoint x="380" y="230" as="sourcePoint" />
            <mxPoint x="420" y="310" as="targetPoint" />
            <Array as="points">
              <mxPoint x="370" y="270" />
            </Array>
          </mxGeometry>
        </mxCell>
        <mxCell id="PefsJQPtOMHPx6LnxWSw-3" style="edgeStyle=orthogonalEdgeStyle;rounded=0;orthogonalLoop=1;jettySize=auto;html=1;" edge="1" parent="1" source="PefsJQPtOMHPx6LnxWSw-1" target="sK4rs6RbN3mdAD_nlhEC-16">
          <mxGeometry relative="1" as="geometry" />
        </mxCell>
        <mxCell id="PefsJQPtOMHPx6LnxWSw-1" value="channel index less than numRows?" style="rhombus;whiteSpace=wrap;html=1;" vertex="1" parent="1">
          <mxGeometry x="525" y="340" width="120" height="120" as="geometry" />
        </mxCell>
        <mxCell id="PefsJQPtOMHPx6LnxWSw-4" value="yes" style="text;html=1;strokeColor=none;fillColor=none;align=center;verticalAlign=middle;whiteSpace=wrap;rounded=0;" vertex="1" parent="1">
          <mxGeometry x="584" y="460" width="40" height="20" as="geometry" />
        </mxCell>
        <mxCell id="PefsJQPtOMHPx6LnxWSw-7" value="" style="edgeStyle=elbowEdgeStyle;elbow=horizontal;endArrow=classic;html=1;exitX=0;exitY=0.5;exitDx=0;exitDy=0;entryX=1;entryY=0.5;entryDx=0;entryDy=0;" edge="1" parent="1" source="PefsJQPtOMHPx6LnxWSw-1" target="sK4rs6RbN3mdAD_nlhEC-21">
          <mxGeometry width="50" height="50" relative="1" as="geometry">
            <mxPoint x="825" y="835" as="sourcePoint" />
            <mxPoint x="824" y="150" as="targetPoint" />
            <Array as="points">
              <mxPoint x="500" y="540" />
              <mxPoint x="760" y="370" />
            </Array>
          </mxGeometry>
        </mxCell>
        <mxCell id="PefsJQPtOMHPx6LnxWSw-8" value="no" style="text;html=1;strokeColor=none;fillColor=none;align=center;verticalAlign=middle;whiteSpace=wrap;rounded=0;" vertex="1" parent="1">
          <mxGeometry x="635" y="380" width="40" height="20" as="geometry" />
        </mxCell>
        <mxCell id="PefsJQPtOMHPx6LnxWSw-10" value="exit" style="whiteSpace=wrap;html=1;" vertex="1" parent="1">
          <mxGeometry x="146" y="545" width="120" height="60" as="geometry" />
        </mxCell>
        <mxCell id="PefsJQPtOMHPx6LnxWSw-12" value="no" style="text;html=1;strokeColor=none;fillColor=none;align=center;verticalAlign=middle;whiteSpace=wrap;rounded=0;" vertex="1" parent="1">
          <mxGeometry x="280" y="550" width="40" height="20" as="geometry" />
        </mxCell>
        <mxCell id="PefsJQPtOMHPx6LnxWSw-14" value="" style="edgeStyle=orthogonalEdgeStyle;rounded=0;orthogonalLoop=1;jettySize=auto;html=1;exitX=0.5;exitY=0;exitDx=0;exitDy=0;entryX=0;entryY=0.5;entryDx=0;entryDy=0;" edge="1" parent="1" source="sK4rs6RbN3mdAD_nlhEC-21" target="sK4rs6RbN3mdAD_nlhEC-10">
          <mxGeometry relative="1" as="geometry">
            <mxPoint x="860" y="590" as="sourcePoint" />
            <mxPoint x="1100" y="260" as="targetPoint" />
            <Array as="points">
              <mxPoint x="375" y="400" />
              <mxPoint x="470" y="400" />
              <mxPoint x="470" y="120" />
            </Array>
          </mxGeometry>
        </mxCell>
      </root>
    </mxGraphModel>
  </diagram>
</mxfile>
